<?xml version="1.0" encoding="UTF-8" standalone="no"?>
<!-- Created with Inkscape (http://www.inkscape.org/) -->

<svg
   xmlns:osb="http://www.openswatchbook.org/uri/2009/osb"
   xmlns:dc="http://purl.org/dc/elements/1.1/"
   xmlns:cc="http://creativecommons.org/ns#"
   xmlns:rdf="http://www.w3.org/1999/02/22-rdf-syntax-ns#"
   xmlns:svg="http://www.w3.org/2000/svg"
   xmlns="http://www.w3.org/2000/svg"
   xmlns:sodipodi="http://sodipodi.sourceforge.net/DTD/sodipodi-0.dtd"
   xmlns:inkscape="http://www.inkscape.org/namespaces/inkscape"
   width="744.09448819"
   height="1052.3622047"
   id="svg2"
   version="1.1"
   inkscape:version="0.91 r13725"
   sodipodi:docname="ordered.svg"
   inkscape:export-filename="/home/rpgcas/r02dr15/Desktop/git/Thesis/Figures/braid.png"
   inkscape:export-xdpi="500"
   inkscape:export-ydpi="500">
  <defs
     id="defs4">
    <inkscape:path-effect
       effect="spiro"
       id="path-effect4355"
       is_visible="true" />
    <inkscape:path-effect
       effect="spiro"
       id="path-effect4306"
       is_visible="true" />
    <inkscape:path-effect
       effect="spiro"
       id="path-effect4299"
       is_visible="true" />
    <inkscape:path-effect
       effect="spiro"
       id="path-effect4281"
       is_visible="true" />
    <inkscape:path-effect
       effect="spiro"
       id="path-effect4265"
       is_visible="true" />
    <inkscape:path-effect
       effect="powerstroke"
       id="path-effect4261"
       is_visible="true"
       offset_points="0,0.5"
       sort_points="true"
       interpolator_type="CubicBezierJohan"
       interpolator_beta="0.2"
       start_linecap_type="zerowidth"
       linejoin_type="round"
       miter_limit="4"
       end_linecap_type="zerowidth"
       cusp_linecap_type="round" />
    <inkscape:path-effect
       effect="powerstroke"
       id="path-effect4257"
       is_visible="true"
       offset_points="0,0.5"
       sort_points="true"
       interpolator_type="CubicBezierJohan"
       interpolator_beta="0.2"
       start_linecap_type="zerowidth"
       linejoin_type="round"
       miter_limit="4"
       end_linecap_type="zerowidth"
       cusp_linecap_type="round" />
    <inkscape:path-effect
       effect="powerstroke"
       id="path-effect4253"
       is_visible="true"
       offset_points="0,0.5"
       sort_points="true"
       interpolator_type="CubicBezierJohan"
       interpolator_beta="0.2"
       start_linecap_type="zerowidth"
       linejoin_type="round"
       miter_limit="4"
       end_linecap_type="zerowidth"
       cusp_linecap_type="round" />
    <inkscape:path-effect
       effect="powerstroke"
       id="path-effect4249"
       is_visible="true"
       offset_points="0,0.5"
       sort_points="true"
       interpolator_type="CubicBezierJohan"
       interpolator_beta="0.2"
       start_linecap_type="zerowidth"
       linejoin_type="round"
       miter_limit="4"
       end_linecap_type="zerowidth"
       cusp_linecap_type="round" />
    <inkscape:path-effect
       effect="powerstroke"
       id="path-effect4245"
       is_visible="true"
       offset_points="0,0.5"
       sort_points="true"
       interpolator_type="CubicBezierJohan"
       interpolator_beta="0.2"
       start_linecap_type="zerowidth"
       linejoin_type="round"
       miter_limit="4"
       end_linecap_type="zerowidth"
       cusp_linecap_type="round" />
    <inkscape:path-effect
       effect="powerstroke"
       id="path-effect4241"
       is_visible="true"
       offset_points="0,0.5"
       sort_points="true"
       interpolator_type="CubicBezierJohan"
       interpolator_beta="0.2"
       start_linecap_type="zerowidth"
       linejoin_type="round"
       miter_limit="4"
       end_linecap_type="zerowidth"
       cusp_linecap_type="round" />
    <inkscape:path-effect
       effect="powerstroke"
       id="path-effect4213"
       is_visible="true"
       offset_points="0,0.5"
       sort_points="true"
       interpolator_type="CubicBezierJohan"
       interpolator_beta="0.2"
       start_linecap_type="zerowidth"
       linejoin_type="round"
       miter_limit="4"
       end_linecap_type="zerowidth"
       cusp_linecap_type="round" />
    <marker
       inkscape:stockid="Arrow1Mend"
       orient="auto"
       refY="0.0"
       refX="0.0"
       id="Arrow1Mend"
       style="overflow:visible;">
      <path
         id="path4059"
         d="M 0.0,0.0 L 5.0,-5.0 L -12.5,0.0 L 5.0,5.0 L 0.0,0.0 z "
         style="fill-rule:evenodd;stroke:#000000;stroke-width:1.0pt;"
         transform="scale(0.4) rotate(180) translate(10,0)" />
    </marker>
    <linearGradient
       id="linearGradient6062"
       osb:paint="solid">
      <stop
         style="stop-color:#ffffff;stop-opacity:0;"
         offset="0"
         id="stop6064" />
    </linearGradient>
    <linearGradient
       id="linearGradient6048"
       osb:paint="solid">
      <stop
         style="stop-color:#000000;stop-opacity:0;"
         offset="0"
         id="stop6050" />
    </linearGradient>
    <inkscape:path-effect
       effect="skeletal"
       id="path-effect6038"
       is_visible="true"
       pattern="M 0,5 C 0,2.24 2.24,0 5,0 7.76,0 10,2.24 10,5 10,7.76 7.76,10 5,10 2.24,10 0,7.76 0,5 z"
       copytype="single_stretched"
       prop_scale="1"
       scale_y_rel="false"
       spacing="0"
       normal_offset="0"
       tang_offset="0"
       prop_units="false"
       vertical_pattern="false"
       fuse_tolerance="0" />
    <inkscape:path-effect
       effect="skeletal"
       id="path-effect6034"
       is_visible="true"
       pattern="M 0,5 C 0,2.24 2.24,0 5,0 7.76,0 10,2.24 10,5 10,7.76 7.76,10 5,10 2.24,10 0,7.76 0,5 z"
       copytype="single_stretched"
       prop_scale="1"
       scale_y_rel="false"
       spacing="0"
       normal_offset="0"
       tang_offset="0"
       prop_units="false"
       vertical_pattern="false"
       fuse_tolerance="0" />
    <inkscape:path-effect
       effect="skeletal"
       id="path-effect6030"
       is_visible="true"
       pattern="M 0,5 C 0,2.24 2.24,0 5,0 7.76,0 10,2.24 10,5 10,7.76 7.76,10 5,10 2.24,10 0,7.76 0,5 z"
       copytype="single_stretched"
       prop_scale="1"
       scale_y_rel="false"
       spacing="0"
       normal_offset="0"
       tang_offset="0"
       prop_units="false"
       vertical_pattern="false"
       fuse_tolerance="0" />
    <inkscape:path-effect
       effect="skeletal"
       id="path-effect6026"
       is_visible="true"
       pattern="M 0,5 C 0,2.24 2.24,0 5,0 7.76,0 10,2.24 10,5 10,7.76 7.76,10 5,10 2.24,10 0,7.76 0,5 z"
       copytype="single_stretched"
       prop_scale="1"
       scale_y_rel="false"
       spacing="0"
       normal_offset="0"
       tang_offset="0"
       prop_units="false"
       vertical_pattern="false"
       fuse_tolerance="0" />
    <inkscape:path-effect
       effect="spiro"
       id="path-effect6024"
       is_visible="true" />
    <inkscape:path-effect
       effect="skeletal"
       id="path-effect5097"
       is_visible="true"
       pattern="m 3.5714286,5.7142857 c 0,-2.76 2.24,-4.99999998 5,-4.99999998 2.7600004,0 5.0000004,2.23999998 5.0000004,4.99999998 0,2.76 -2.24,5.0000003 -5.0000004,5.0000003 -2.76,0 -5,-2.2400003 -5,-5.0000003 z"
       copytype="single_stretched"
       prop_scale="1"
       scale_y_rel="false"
       spacing="0"
       normal_offset="0"
       tang_offset="0"
       prop_units="false"
       vertical_pattern="false"
       fuse_tolerance="0" />
    <inkscape:path-effect
       effect="spiro"
       id="path-effect5095"
       is_visible="true" />
    <marker
       inkscape:stockid="Arrow1Lend"
       orient="auto"
       refY="0.0"
       refX="0.0"
       id="Arrow1Lend"
       style="overflow:visible;">
      <path
         id="path4053"
         d="M 0.0,0.0 L 5.0,-5.0 L -12.5,0.0 L 5.0,5.0 L 0.0,0.0 z "
         style="fill-rule:evenodd;stroke:#000000;stroke-width:1.0pt;"
         transform="scale(0.8) rotate(180) translate(12.5,0)" />
    </marker>
    <inkscape:path-effect
       effect="spiro"
       id="path-effect3820"
       is_visible="true" />
    <marker
       inkscape:stockid="Arrow1Mend"
       orient="auto"
       refY="0"
       refX="0"
       id="Arrow1Mend-2"
       style="overflow:visible">
      <path
         inkscape:connector-curvature="0"
         id="path4059-3"
         d="M 0,0 5,-5 -12.5,0 5,5 0,0 z"
         style="fill-rule:evenodd;stroke:#000000;stroke-width:1pt"
         transform="matrix(-0.4,0,0,-0.4,-4,0)" />
    </marker>
    <marker
       inkscape:stockid="Arrow1Mend"
       orient="auto"
       refY="0"
       refX="0"
       id="Arrow1Mend-9"
       style="overflow:visible">
      <path
         inkscape:connector-curvature="0"
         id="path4059-2"
         d="M 0,0 5,-5 -12.5,0 5,5 0,0 z"
         style="fill-rule:evenodd;stroke:#000000;stroke-width:1pt"
         transform="matrix(-0.4,0,0,-0.4,-4,0)" />
    </marker>
  </defs>
  <sodipodi:namedview
     id="base"
     pagecolor="#ffffff"
     bordercolor="#666666"
     borderopacity="1.0"
     inkscape:pageopacity="0.0"
     inkscape:pageshadow="2"
     inkscape:zoom="2.8"
     inkscape:cx="351.02284"
     inkscape:cy="726.74747"
     inkscape:document-units="px"
     inkscape:current-layer="layer1"
     showgrid="false"
     inkscape:window-width="1366"
     inkscape:window-height="719"
     inkscape:window-x="0"
     inkscape:window-y="25"
     inkscape:window-maximized="1"
     inkscape:snap-intersection-paths="true"
     inkscape:object-paths="true"
     inkscape:object-nodes="false"
     inkscape:snap-nodes="true" />
  <metadata
     id="metadata7">
    <rdf:RDF>
      <cc:Work
         rdf:about="">
        <dc:format>image/svg+xml</dc:format>
        <dc:type
           rdf:resource="http://purl.org/dc/dcmitype/StillImage" />
        <dc:title />
      </cc:Work>
    </rdf:RDF>
  </metadata>
  <g
     inkscape:label="Layer 1"
     inkscape:groupmode="layer"
     id="layer1">
    <path
       style="opacity:0.9174603;fill:#8cffaf;fill-opacity:1;fill-rule:evenodd;stroke:#000000;stroke-width:1;stroke-linecap:round;stroke-linejoin:miter;stroke-miterlimit:4;stroke-dasharray:none;stroke-dashoffset:0;stroke-opacity:1"
       d="m 327.92978,387.20425 c -2.63902,-0.38754 -6.38921,-1.18447 -8.33376,-1.77095 -3.18908,-0.96184 -10.73369,-4.30396 -11.36421,-5.03414 -0.1389,-0.16085 -1.53839,-1.2486 -3.10998,-2.41722 -4.64623,-3.4549 -13.3492,-12.87814 -20.88115,-22.60931 -0.83337,-1.07671 -1.85615,-2.32527 -2.27284,-2.77457 -1.89412,-2.04236 -8.12946,-10.70607 -10.00528,-13.90186 -5.94339,-10.1256 -7.65289,-19.73201 -5.19321,-29.18293 5.10384,-19.61067 27.60134,-39.20825 49.38411,-43.0185 15.41561,-2.6965 30.81973,1.66603 40.80831,11.55713 5.75786,5.70168 9.48541,11.51065 19.30663,30.08718 7.32615,13.85719 15.65329,22.91723 24.4895,26.64491 2.73428,1.15349 3.90177,1.34392 8.23662,1.34344 3.9265,-4.4e-4 5.52858,-0.21894 7.19734,-0.98162 1.18061,-0.53958 2.14657,-1.15473 2.14657,-1.36699 0,-0.21226 0.29634,-0.38592 0.65854,-0.38592 0.88834,0 3.52757,-2.82148 4.96073,-5.30331 1.50691,-2.60953 1.66776,-8.69236 0.29693,-11.22914 -2.93875,-5.43831 -9.08168,-7.95832 -20.81595,-8.53934 -6.92293,-0.34278 -15.35121,0.62381 -20.46719,2.34726 -1.72522,0.58119 -4.13967,0.9052 -4.13967,0.9052 -0.30708,-0.39084 -3.52578,-5.84802 -5.25627,-9.24287 -3.75673,-7.36989 -7.42987,-13.88005 -9.81524,-16.95274 -0.86003,-1.10784 -2.18958,-2.74378 -1.93248,-2.99504 0.7019,-0.68596 11.34066,-3.38853 16.35704,-4.04277 23.50061,-3.06499 48.871,3.03291 64.52368,15.50858 5.44479,4.33967 9.14351,9.90232 11.1242,16.73015 0.98835,3.40704 1.1175,4.9688 1.07218,12.96503 -0.0439,7.74266 -0.28343,10.42118 -1.61478,18.05532 -1.59537,9.14814 -3.13554,15.54255 -4.42859,18.3865 -0.398,0.87536 -0.72363,1.79495 -0.72363,2.04353 0,0.8917 -4.65694,8.02058 -6.47666,9.91451 -4.45268,4.63429 -10.87688,7.88558 -18.09052,9.15563 -2.46109,0.4333 -8.45218,0.90177 -13.31354,1.04103 -20.13867,0.57692 -29.70554,1.20757 -37.88072,2.49712 -1.57818,0.24894 -4.96712,0.65861 -8.58629,1.03794 -1.52786,0.16014 -5.50534,0.62855 -8.83884,1.04093 -8.96581,1.10912 -21.27729,1.33138 -27.02158,0.48783 z m 28.19542,-42.48066 c 4.53435,-1.88889 8.02049,-7.29909 8.50948,-13.20599 1.06245,-12.83424 -11.97402,-31.91337 -26.35361,-38.56903 -13.45334,-6.22695 -29.20483,-2.24542 -36.66049,9.26672 -2.82456,4.36136 -3.7488,7.78744 -3.70992,13.75247 0.04,6.14351 1.26919,9.78348 4.43075,13.12108 2.31636,2.44535 4.04391,3.2939 6.70597,3.2939 4.52535,0 7.16912,-3.27418 9.58394,-11.86929 2.88882,-10.28227 10.26464,-19.12878 19.7836,-23.72835 l 3.78326,-1.2832 3.17263,2.17291 c 1.61811,1.10823 4.14121,3.47842 6.0967,5.53703 3.4172,3.59743 8.66088,11.51424 8.66088,12.69744 0,0.31323 -2.12763,0.38506 -3.03046,0.77695 -6.97832,3.02901 -15.32803,11.5456 -16.51586,16.84594 -1.20696,5.3857 2.62183,10.97002 8.30838,12.11783 1.70768,0.34468 5.28222,-0.11303 7.23475,-0.92641 z"
       id="path4351"
       inkscape:connector-curvature="0"
       inkscape:export-xdpi="500"
       inkscape:export-ydpi="500"
       sodipodi:nodetypes="sscssssssssssssssssscsssssssssssssssssssssssssscsssssss" />
    <ellipse
       style="fill:#ff00ff;fill-opacity:1;stroke:#000000;stroke-width:0.75068718;stroke-miterlimit:4;stroke-dasharray:none;stroke-opacity:1"
       id="path2985-7-5-8-3-5-2-3"
       cx="413.65747"
       cy="357.88232"
       rx="2.3855917"
       ry="2.5664265"
       inkscape:export-xdpi="500"
       inkscape:export-ydpi="500" />
    <ellipse
       style="fill:#ffff00;fill-opacity:1;stroke:#000000;stroke-width:0.75068718;stroke-miterlimit:4;stroke-dasharray:none;stroke-opacity:1"
       id="path2985-7-5-8-3-5-2-6"
       cx="437.39606"
       cy="307.87976"
       rx="2.3855917"
       ry="2.5664265"
       inkscape:export-xdpi="500"
       inkscape:export-ydpi="500" />
    <ellipse
       style="fill:#0000ff;fill-opacity:1;stroke:#000000;stroke-width:0.75068718;stroke-miterlimit:4;stroke-dasharray:none;stroke-opacity:1"
       id="path2985-7-5-8-3-5-2-7"
       cx="343.95694"
       cy="284.14117"
       rx="2.3855917"
       ry="2.5664265"
       inkscape:export-xdpi="500"
       inkscape:export-ydpi="500" />
    <ellipse
       style="fill:#00ff00;fill-opacity:1;stroke:#000000;stroke-width:0.75068718;stroke-miterlimit:4;stroke-dasharray:none;stroke-opacity:1"
       id="path2985-7-5-8-3-5-2-5"
       cx="314.66254"
       cy="353.84171"
       rx="2.3855917"
       ry="2.5664265"
       inkscape:export-xdpi="500"
       inkscape:export-ydpi="500" />
    <ellipse
       style="fill:#ff0000;fill-opacity:1;stroke:#000000;stroke-width:0.75068718;stroke-miterlimit:4;stroke-dasharray:none;stroke-opacity:1"
       id="path2985-7-5-8-3-5-2"
       cx="282.1308"
       cy="307.3273"
       rx="2.3855917"
       ry="2.5664265"
       inkscape:export-xdpi="500"
       inkscape:export-ydpi="500" />
  </g>
</svg>
